<svg width="553" height="234" viewBox="0 0 553 234" fill="none" xmlns="http://www.w3.org/2000/svg">
<path d="M320.438 116.716L204.722 1.00002V232.433L320.438 116.716Z" fill="black" fill-opacity="0.05"/>
<path d="M89.4327 116.716L54.5745 81.8582V151.575L89.4327 116.716Z" fill="black" fill-opacity="0.05"/>
<path d="M551.433 116.716L435.716 1.00002V232.433L551.433 116.716Z" fill="black" fill-opacity="0.05"/>
<path d="M13.8273 46V32.04H18.9073C20.2007 32.04 21.1873 32.3933 21.8673 33.1C22.5473 33.8067 22.8873 34.7933 22.8873 36.06C22.8873 37.3267 22.5473 38.3133 21.8673 39.02C21.1873 39.7267 20.2007 40.08 18.9073 40.08H15.5073V46H13.8273ZM15.5073 38.62H18.8673C19.574 38.62 20.1207 38.4467 20.5073 38.1C20.9073 37.74 21.1073 37.2333 21.1073 36.58V35.54C21.1073 34.8867 20.9073 34.3867 20.5073 34.04C20.1207 33.68 19.574 33.5 18.8673 33.5H15.5073V38.62ZM25.5595 44.64H28.5795V37.04H25.5595V35.68H30.1795V38.28H30.2795C30.4929 37.4667 30.8929 36.8333 31.4795 36.38C32.0795 35.9133 32.8395 35.68 33.7595 35.68H35.1995V37.28H33.2595C32.3395 37.28 31.5929 37.5467 31.0195 38.08C30.4595 38.6133 30.1795 39.3133 30.1795 40.18V44.64H34.1795V46H25.5595V44.64ZM42.0117 46.24C41.2917 46.24 40.6384 46.1133 40.0517 45.86C39.4784 45.6067 38.9851 45.2467 38.5717 44.78C38.1717 44.3 37.8651 43.7333 37.6517 43.08C37.4384 42.4133 37.3317 41.6667 37.3317 40.84C37.3317 40.0267 37.4384 39.2867 37.6517 38.62C37.8651 37.9533 38.1717 37.3867 38.5717 36.92C38.9851 36.44 39.4784 36.0733 40.0517 35.82C40.6384 35.5667 41.2917 35.44 42.0117 35.44C42.7317 35.44 43.3784 35.5667 43.9517 35.82C44.5384 36.0733 45.0317 36.44 45.4317 36.92C45.8451 37.3867 46.1584 37.9533 46.3717 38.62C46.5851 39.2867 46.6917 40.0267 46.6917 40.84C46.6917 41.6667 46.5851 42.4133 46.3717 43.08C46.1584 43.7333 45.8451 44.3 45.4317 44.78C45.0317 45.2467 44.5384 45.6067 43.9517 45.86C43.3784 46.1133 42.7317 46.24 42.0117 46.24ZM42.0117 44.86C42.9051 44.86 43.6251 44.5933 44.1717 44.06C44.7184 43.5267 44.9917 42.7 44.9917 41.58V40.1C44.9917 38.98 44.7184 38.1533 44.1717 37.62C43.6251 37.0867 42.9051 36.82 42.0117 36.82C41.1184 36.82 40.3984 37.0867 39.8517 37.62C39.3051 38.1533 39.0317 38.98 39.0317 40.1V41.58C39.0317 42.7 39.3051 43.5267 39.8517 44.06C40.3984 44.5933 41.1184 44.86 42.0117 44.86ZM49.9039 31.2H51.5039V37.36H51.5839C52.2506 36.08 53.3106 35.44 54.7639 35.44C56.0306 35.44 57.0172 35.9133 57.7239 36.86C58.4439 37.8067 58.8039 39.1333 58.8039 40.84C58.8039 42.5467 58.4439 43.8733 57.7239 44.82C57.0172 45.7667 56.0306 46.24 54.7639 46.24C53.3106 46.24 52.2506 45.6 51.5839 44.32H51.5039V46H49.9039V31.2ZM54.1439 44.82C55.0772 44.82 55.7972 44.54 56.3039 43.98C56.8239 43.4067 57.0839 42.6533 57.0839 41.72V39.96C57.0839 39.0267 56.8239 38.28 56.3039 37.72C55.7972 37.1467 55.0772 36.86 54.1439 36.86C53.7839 36.86 53.4439 36.9067 53.1239 37C52.8039 37.0933 52.5239 37.2333 52.2839 37.42C52.0439 37.5933 51.8506 37.8133 51.7039 38.08C51.5706 38.3333 51.5039 38.6333 51.5039 38.98V42.7C51.5039 43.0467 51.5706 43.3533 51.7039 43.62C51.8506 43.8733 52.0439 44.0933 52.2839 44.28C52.5239 44.4533 52.8039 44.5867 53.1239 44.68C53.4439 44.7733 53.7839 44.82 54.1439 44.82ZM61.5961 44.64H65.1961V32.56H61.5961V31.2H66.7961V44.64H70.3961V46H61.5961V44.64ZM78.1683 46.24C77.4216 46.24 76.7483 46.1133 76.1483 45.86C75.5616 45.6067 75.0549 45.2467 74.6283 44.78C74.2149 44.3 73.8949 43.7333 73.6683 43.08C73.4416 42.4133 73.3283 41.6733 73.3283 40.86C73.3283 40.0333 73.4416 39.2867 73.6683 38.62C73.9083 37.9533 74.2349 37.3867 74.6483 36.92C75.0616 36.44 75.5549 36.0733 76.1283 35.82C76.7149 35.5667 77.3616 35.44 78.0683 35.44C78.7616 35.44 79.3883 35.5667 79.9483 35.82C80.5216 36.0733 81.0083 36.4267 81.4083 36.88C81.8083 37.32 82.1149 37.8467 82.3283 38.46C82.5416 39.0733 82.6483 39.7467 82.6483 40.48V41.24H75.0083V41.72C75.0083 42.1733 75.0816 42.5933 75.2283 42.98C75.3749 43.3667 75.5816 43.7 75.8483 43.98C76.1283 44.26 76.4616 44.48 76.8483 44.64C77.2483 44.7867 77.6883 44.86 78.1683 44.86C78.8616 44.86 79.4616 44.7 79.9683 44.38C80.4749 44.06 80.8616 43.62 81.1283 43.06L82.3083 43.86C82.0016 44.5533 81.4883 45.1267 80.7683 45.58C80.0616 46.02 79.1949 46.24 78.1683 46.24ZM78.0683 36.76C77.6283 36.76 77.2216 36.84 76.8483 37C76.4749 37.16 76.1483 37.38 75.8683 37.66C75.6016 37.94 75.3883 38.2733 75.2283 38.66C75.0816 39.0333 75.0083 39.4467 75.0083 39.9V40.04H80.9283V39.82C80.9283 39.3667 80.8549 38.9533 80.7083 38.58C80.5749 38.2067 80.3816 37.8867 80.1283 37.62C79.8883 37.34 79.5883 37.1267 79.2283 36.98C78.8816 36.8333 78.4949 36.76 78.0683 36.76ZM85.0605 46V35.68H86.5405V36.88H86.6205C86.7805 36.48 87.0071 36.14 87.3005 35.86C87.5938 35.58 88.0271 35.44 88.6005 35.44C89.2005 35.44 89.6471 35.5933 89.9405 35.9C90.2338 36.1933 90.4138 36.58 90.4805 37.06H90.5405C90.7271 36.5933 90.9938 36.2067 91.3405 35.9C91.6871 35.5933 92.1671 35.44 92.7805 35.44C93.6205 35.44 94.1805 35.7333 94.4605 36.32C94.7538 36.9067 94.9005 37.7467 94.9005 38.84V46H93.4205V39.1C93.4205 38.22 93.3271 37.6133 93.1405 37.28C92.9671 36.9333 92.6405 36.76 92.1605 36.76C91.7338 36.76 91.3871 36.9 91.1205 37.18C90.8538 37.4467 90.7205 37.86 90.7205 38.42V46H89.2405V39.1C89.2405 38.22 89.1471 37.6133 88.9605 37.28C88.7871 36.9333 88.4671 36.76 88.0005 36.76C87.5738 36.76 87.2205 36.9 86.9405 37.18C86.6738 37.4467 86.5405 37.86 86.5405 38.42V46H85.0605ZM25.6795 70.64H29.1595V63.04H25.4795V61.68H29.1595V59.56C29.1595 58.8667 29.3395 58.3 29.6995 57.86C30.0729 57.42 30.6529 57.2 31.4395 57.2H34.8995V58.56H30.7595V61.68H34.8995V63.04H30.7595V70.64H34.4395V72H25.6795V70.64ZM42.0117 72.24C41.2917 72.24 40.6384 72.1133 40.0517 71.86C39.4784 71.6067 38.9851 71.2467 38.5717 70.78C38.1717 70.3 37.8651 69.7333 37.6517 69.08C37.4384 68.4133 37.3317 67.6667 37.3317 66.84C37.3317 66.0267 37.4384 65.2867 37.6517 64.62C37.8651 63.9533 38.1717 63.3867 38.5717 62.92C38.9851 62.44 39.4784 62.0733 40.0517 61.82C40.6384 61.5667 41.2917 61.44 42.0117 61.44C42.7317 61.44 43.3784 61.5667 43.9517 61.82C44.5384 62.0733 45.0317 62.44 45.4317 62.92C45.8451 63.3867 46.1584 63.9533 46.3717 64.62C46.5851 65.2867 46.6917 66.0267 46.6917 66.84C46.6917 67.6667 46.5851 68.4133 46.3717 69.08C46.1584 69.7333 45.8451 70.3 45.4317 70.78C45.0317 71.2467 44.5384 71.6067 43.9517 71.86C43.3784 72.1133 42.7317 72.24 42.0117 72.24ZM42.0117 70.86C42.9051 70.86 43.6251 70.5933 44.1717 70.06C44.7184 69.5267 44.9917 68.7 44.9917 67.58V66.1C44.9917 64.98 44.7184 64.1533 44.1717 63.62C43.6251 63.0867 42.9051 62.82 42.0117 62.82C41.1184 62.82 40.3984 63.0867 39.8517 63.62C39.3051 64.1533 39.0317 64.98 39.0317 66.1V67.58C39.0317 68.7 39.3051 69.5267 39.8517 70.06C40.3984 70.5933 41.1184 70.86 42.0117 70.86ZM54.3639 72.24C53.6172 72.24 52.9506 72.1133 52.3639 71.86C51.7906 71.5933 51.3039 71.2267 50.9039 70.76C50.5039 70.2933 50.1972 69.7267 49.9839 69.06C49.7839 68.3933 49.6839 67.6533 49.6839 66.84C49.6839 66.0267 49.7906 65.2867 50.0039 64.62C50.2172 63.9533 50.5239 63.3867 50.9239 62.92C51.3239 62.44 51.8106 62.0733 52.3839 61.82C52.9572 61.5667 53.6106 61.44 54.3439 61.44C55.3439 61.44 56.1572 61.66 56.7839 62.1C57.4106 62.54 57.8706 63.1133 58.1639 63.82L56.8839 64.5C56.6972 63.9667 56.3839 63.5533 55.9439 63.26C55.5172 62.9667 54.9839 62.82 54.3439 62.82C53.8772 62.82 53.4572 62.9 53.0839 63.06C52.7239 63.2067 52.4172 63.42 52.1639 63.7C51.9106 63.98 51.7172 64.3133 51.5839 64.7C51.4639 65.0867 51.4039 65.5067 51.4039 65.96V67.72C51.4039 68.1733 51.4639 68.5933 51.5839 68.98C51.7172 69.3667 51.9106 69.7 52.1639 69.98C52.4172 70.26 52.7306 70.48 53.1039 70.64C53.4772 70.7867 53.9039 70.86 54.3839 70.86C55.0772 70.86 55.6506 70.7 56.1039 70.38C56.5572 70.06 56.9172 69.62 57.1839 69.06L58.3239 69.84C58.0172 70.5333 57.5372 71.1067 56.8839 71.56C56.2439 72.0133 55.4039 72.24 54.3639 72.24ZM68.4361 70.32H68.3561C68.2494 70.5733 68.1161 70.82 67.9561 71.06C67.7961 71.2867 67.5961 71.4867 67.3561 71.66C67.1294 71.8333 66.8561 71.9733 66.5361 72.08C66.2161 72.1867 65.8428 72.24 65.4161 72.24C64.3361 72.24 63.4694 71.9 62.8161 71.22C62.1628 70.5267 61.8361 69.5533 61.8361 68.3V61.68H63.4361V68.02C63.4361 68.9667 63.6428 69.6733 64.0561 70.14C64.4694 70.5933 65.0761 70.82 65.8761 70.82C66.1961 70.82 66.5094 70.78 66.8161 70.7C67.1228 70.62 67.3961 70.5 67.6361 70.34C67.8761 70.18 68.0694 69.98 68.2161 69.74C68.3628 69.4867 68.4361 69.1867 68.4361 68.84V61.68H70.0361V72H68.4361V70.32ZM78.1083 72.24C77.0283 72.24 76.0949 72.06 75.3083 71.7C74.5349 71.3267 73.8749 70.8333 73.3283 70.22L74.4083 69.28C74.9016 69.8 75.4416 70.2 76.0283 70.48C76.6149 70.76 77.3216 70.9 78.1483 70.9C78.9483 70.9 79.6016 70.76 80.1083 70.48C80.6283 70.1867 80.8883 69.7333 80.8883 69.12C80.8883 68.8533 80.8349 68.6333 80.7283 68.46C80.6349 68.2733 80.5016 68.1267 80.3283 68.02C80.1549 67.9133 79.9616 67.8333 79.7483 67.78C79.5349 67.7133 79.3083 67.66 79.0683 67.62L77.4483 67.38C77.0883 67.3267 76.6949 67.2533 76.2683 67.16C75.8549 67.0667 75.4749 66.92 75.1283 66.72C74.7816 66.5067 74.4883 66.2267 74.2483 65.88C74.0216 65.5333 73.9083 65.08 73.9083 64.52C73.9083 64 74.0083 63.5533 74.2083 63.18C74.4216 62.7933 74.7149 62.4733 75.0883 62.22C75.4616 61.9533 75.9016 61.76 76.4083 61.64C76.9149 61.5067 77.4683 61.44 78.0683 61.44C79.0016 61.44 79.8083 61.5867 80.4883 61.88C81.1816 62.1733 81.7749 62.58 82.2683 63.1L81.2283 64.08C81.1083 63.9333 80.9549 63.7867 80.7683 63.64C80.5949 63.48 80.3749 63.34 80.1083 63.22C79.8549 63.0867 79.5549 62.98 79.2083 62.9C78.8616 62.82 78.4616 62.78 78.0083 62.78C77.1949 62.78 76.5683 62.92 76.1283 63.2C75.7016 63.48 75.4883 63.8867 75.4883 64.42C75.4883 64.6867 75.5349 64.9133 75.6283 65.1C75.7349 65.2733 75.8749 65.4133 76.0483 65.52C76.2216 65.6267 76.4149 65.7133 76.6283 65.78C76.8549 65.8333 77.0816 65.88 77.3083 65.92L78.9283 66.16C79.3016 66.2133 79.6949 66.2867 80.1083 66.38C80.5216 66.4733 80.9016 66.6267 81.2483 66.84C81.5949 67.04 81.8816 67.3133 82.1083 67.66C82.3483 68.0067 82.4683 68.46 82.4683 69.02C82.4683 70.0467 82.0683 70.84 81.2683 71.4C80.4816 71.96 79.4283 72.24 78.1083 72.24Z" fill="black"/>
<rect x="19.7163" y="116.716" width="48.9919" height="48.9919" transform="rotate(-45 19.7163 116.716)" stroke="black"/>
<rect x="89.0054" y="116.716" width="163.648" height="163.648" transform="rotate(-45 89.0054 116.716)" stroke="black"/>
<rect x="320.567" y="116.716" width="163.648" height="163.648" transform="rotate(-45 320.567 116.716)" stroke="black"/>
<path d="M160.511 72H158.831V58.04H163.911C165.205 58.04 166.191 58.3933 166.871 59.1C167.551 59.8067 167.891 60.7933 167.891 62.06C167.891 63.1933 167.598 64.1 167.011 64.78C166.425 65.46 165.571 65.8533 164.451 65.96L168.011 72H166.131L162.731 66.04H160.511V72ZM163.871 64.62C164.578 64.62 165.125 64.4467 165.511 64.1C165.911 63.74 166.111 63.2333 166.111 62.58V61.54C166.111 60.8867 165.911 60.3867 165.511 60.04C165.125 59.68 164.578 59.5 163.871 59.5H160.511V64.62H163.871ZM175.203 72.24C174.457 72.24 173.783 72.1133 173.183 71.86C172.597 71.6067 172.09 71.2467 171.663 70.78C171.25 70.3 170.93 69.7333 170.703 69.08C170.477 68.4133 170.363 67.6733 170.363 66.86C170.363 66.0333 170.477 65.2867 170.703 64.62C170.943 63.9533 171.27 63.3867 171.683 62.92C172.097 62.44 172.59 62.0733 173.163 61.82C173.75 61.5667 174.397 61.44 175.103 61.44C175.797 61.44 176.423 61.5667 176.983 61.82C177.557 62.0733 178.043 62.4267 178.443 62.88C178.843 63.32 179.15 63.8467 179.363 64.46C179.577 65.0733 179.683 65.7467 179.683 66.48V67.24H172.043V67.72C172.043 68.1733 172.117 68.5933 172.263 68.98C172.41 69.3667 172.617 69.7 172.883 69.98C173.163 70.26 173.497 70.48 173.883 70.64C174.283 70.7867 174.723 70.86 175.203 70.86C175.897 70.86 176.497 70.7 177.003 70.38C177.51 70.06 177.897 69.62 178.163 69.06L179.343 69.86C179.037 70.5533 178.523 71.1267 177.803 71.58C177.097 72.02 176.23 72.24 175.203 72.24ZM175.103 62.76C174.663 62.76 174.257 62.84 173.883 63C173.51 63.16 173.183 63.38 172.903 63.66C172.637 63.94 172.423 64.2733 172.263 64.66C172.117 65.0333 172.043 65.4467 172.043 65.9V66.04H177.963V65.82C177.963 65.3667 177.89 64.9533 177.743 64.58C177.61 64.2067 177.417 63.8867 177.163 63.62C176.923 63.34 176.623 63.1267 176.263 62.98C175.917 62.8333 175.53 62.76 175.103 62.76ZM187.136 72.24C186.056 72.24 185.122 72.06 184.336 71.7C183.562 71.3267 182.902 70.8333 182.356 70.22L183.436 69.28C183.929 69.8 184.469 70.2 185.056 70.48C185.642 70.76 186.349 70.9 187.176 70.9C187.976 70.9 188.629 70.76 189.136 70.48C189.656 70.1867 189.916 69.7333 189.916 69.12C189.916 68.8533 189.862 68.6333 189.756 68.46C189.662 68.2733 189.529 68.1267 189.356 68.02C189.182 67.9133 188.989 67.8333 188.776 67.78C188.562 67.7133 188.336 67.66 188.096 67.62L186.476 67.38C186.116 67.3267 185.722 67.2533 185.296 67.16C184.882 67.0667 184.502 66.92 184.156 66.72C183.809 66.5067 183.516 66.2267 183.276 65.88C183.049 65.5333 182.936 65.08 182.936 64.52C182.936 64 183.036 63.5533 183.236 63.18C183.449 62.7933 183.742 62.4733 184.116 62.22C184.489 61.9533 184.929 61.76 185.436 61.64C185.942 61.5067 186.496 61.44 187.096 61.44C188.029 61.44 188.836 61.5867 189.516 61.88C190.209 62.1733 190.802 62.58 191.296 63.1L190.256 64.08C190.136 63.9333 189.982 63.7867 189.796 63.64C189.622 63.48 189.402 63.34 189.136 63.22C188.882 63.0867 188.582 62.98 188.236 62.9C187.889 62.82 187.489 62.78 187.036 62.78C186.222 62.78 185.596 62.92 185.156 63.2C184.729 63.48 184.516 63.8867 184.516 64.42C184.516 64.6867 184.562 64.9133 184.656 65.1C184.762 65.2733 184.902 65.4133 185.076 65.52C185.249 65.6267 185.442 65.7133 185.656 65.78C185.882 65.8333 186.109 65.88 186.336 65.92L187.956 66.16C188.329 66.2133 188.722 66.2867 189.136 66.38C189.549 66.4733 189.929 66.6267 190.276 66.84C190.622 67.04 190.909 67.3133 191.136 67.66C191.376 68.0067 191.496 68.46 191.496 69.02C191.496 70.0467 191.096 70.84 190.296 71.4C189.509 71.96 188.456 72.24 187.136 72.24ZM199.188 72.24C198.441 72.24 197.768 72.1133 197.168 71.86C196.581 71.6067 196.074 71.2467 195.648 70.78C195.234 70.3 194.914 69.7333 194.688 69.08C194.461 68.4133 194.348 67.6733 194.348 66.86C194.348 66.0333 194.461 65.2867 194.688 64.62C194.928 63.9533 195.254 63.3867 195.668 62.92C196.081 62.44 196.574 62.0733 197.148 61.82C197.734 61.5667 198.381 61.44 199.088 61.44C199.781 61.44 200.408 61.5667 200.968 61.82C201.541 62.0733 202.028 62.4267 202.428 62.88C202.828 63.32 203.134 63.8467 203.348 64.46C203.561 65.0733 203.668 65.7467 203.668 66.48V67.24H196.028V67.72C196.028 68.1733 196.101 68.5933 196.248 68.98C196.394 69.3667 196.601 69.7 196.868 69.98C197.148 70.26 197.481 70.48 197.868 70.64C198.268 70.7867 198.708 70.86 199.188 70.86C199.881 70.86 200.481 70.7 200.988 70.38C201.494 70.06 201.881 69.62 202.148 69.06L203.328 69.86C203.021 70.5533 202.508 71.1267 201.788 71.58C201.081 72.02 200.214 72.24 199.188 72.24ZM199.088 62.76C198.648 62.76 198.241 62.84 197.868 63C197.494 63.16 197.168 63.38 196.888 63.66C196.621 63.94 196.408 64.2733 196.248 64.66C196.101 65.0333 196.028 65.4467 196.028 65.9V66.04H201.948V65.82C201.948 65.3667 201.874 64.9533 201.728 64.58C201.594 64.2067 201.401 63.8867 201.148 63.62C200.908 63.34 200.608 63.1267 200.248 62.98C199.901 62.8333 199.514 62.76 199.088 62.76ZM214.9 72C214.273 72 213.827 71.84 213.56 71.52C213.293 71.2 213.127 70.8 213.06 70.32H212.96C212.733 70.92 212.367 71.3933 211.86 71.74C211.367 72.0733 210.7 72.24 209.86 72.24C208.78 72.24 207.92 71.96 207.28 71.4C206.64 70.84 206.32 70.0733 206.32 69.1C206.32 68.14 206.667 67.4 207.36 66.88C208.067 66.36 209.2 66.1 210.76 66.1H212.96V65.08C212.96 64.32 212.747 63.7533 212.32 63.38C211.893 62.9933 211.287 62.8 210.5 62.8C209.807 62.8 209.24 62.94 208.8 63.22C208.36 63.4867 208.007 63.8533 207.74 64.32L206.66 63.52C206.793 63.2533 206.973 62.9933 207.2 62.74C207.427 62.4867 207.707 62.2667 208.04 62.08C208.373 61.88 208.753 61.7267 209.18 61.62C209.607 61.5 210.08 61.44 210.6 61.44C211.813 61.44 212.773 61.7467 213.48 62.36C214.2 62.9733 214.56 63.8267 214.56 64.92V70.6H216V72H214.9ZM210.14 70.9C210.553 70.9 210.927 70.8533 211.26 70.76C211.607 70.6533 211.907 70.52 212.16 70.36C212.413 70.1867 212.607 69.9867 212.74 69.76C212.887 69.52 212.96 69.2667 212.96 69V67.3H210.76C209.8 67.3 209.1 67.4333 208.66 67.7C208.22 67.9667 208 68.3533 208 68.86V69.28C208 69.8133 208.187 70.22 208.56 70.5C208.947 70.7667 209.473 70.9 210.14 70.9ZM218.532 70.64H221.552V63.04H218.532V61.68H223.152V64.28H223.252C223.466 63.4667 223.866 62.8333 224.452 62.38C225.052 61.9133 225.812 61.68 226.732 61.68H228.172V63.28H226.232C225.312 63.28 224.566 63.5467 223.992 64.08C223.432 64.6133 223.152 65.3133 223.152 66.18V70.64H227.152V72H218.532V70.64ZM235.344 72.24C234.598 72.24 233.931 72.1133 233.344 71.86C232.771 71.5933 232.284 71.2267 231.884 70.76C231.484 70.2933 231.178 69.7267 230.964 69.06C230.764 68.3933 230.664 67.6533 230.664 66.84C230.664 66.0267 230.771 65.2867 230.984 64.62C231.198 63.9533 231.504 63.3867 231.904 62.92C232.304 62.44 232.791 62.0733 233.364 61.82C233.938 61.5667 234.591 61.44 235.324 61.44C236.324 61.44 237.138 61.66 237.764 62.1C238.391 62.54 238.851 63.1133 239.144 63.82L237.864 64.5C237.678 63.9667 237.364 63.5533 236.924 63.26C236.498 62.9667 235.964 62.82 235.324 62.82C234.858 62.82 234.438 62.9 234.064 63.06C233.704 63.2067 233.398 63.42 233.144 63.7C232.891 63.98 232.698 64.3133 232.564 64.7C232.444 65.0867 232.384 65.5067 232.384 65.96V67.72C232.384 68.1733 232.444 68.5933 232.564 68.98C232.698 69.3667 232.891 69.7 233.144 69.98C233.398 70.26 233.711 70.48 234.084 70.64C234.458 70.7867 234.884 70.86 235.364 70.86C236.058 70.86 236.631 70.7 237.084 70.38C237.538 70.06 237.898 69.62 238.164 69.06L239.304 69.84C238.998 70.5333 238.518 71.1067 237.864 71.56C237.224 72.0133 236.384 72.24 235.344 72.24ZM242.937 57.2H244.537V63.36H244.617C244.723 63.1067 244.857 62.8667 245.017 62.64C245.177 62.4 245.37 62.1933 245.597 62.02C245.837 61.8467 246.117 61.7067 246.437 61.6C246.757 61.4933 247.13 61.44 247.557 61.44C248.637 61.44 249.503 61.7867 250.157 62.48C250.81 63.16 251.137 64.1267 251.137 65.38V72H249.537V65.66C249.537 64.7133 249.33 64.0133 248.917 63.56C248.503 63.0933 247.897 62.86 247.097 62.86C246.777 62.86 246.463 62.9 246.157 62.98C245.85 63.06 245.577 63.18 245.337 63.34C245.097 63.5 244.903 63.7067 244.757 63.96C244.61 64.2133 244.537 64.5067 244.537 64.84V72H242.937V57.2Z" fill="black"/>
<path d="M122.362 124V112.832H129.242V114H123.706V117.76H129.05V118.928H123.706V122.832H129.242V124H122.362ZM131.492 124L134.564 119.808L131.572 115.744H133.108L134.356 117.488L135.348 118.864H135.412L136.372 117.488L137.604 115.744H139.076L136.052 119.792L139.156 124H137.62L136.228 122.064L135.284 120.752H135.22L134.308 122.064L132.964 124H131.492ZM141.629 115.744H142.909V117.088H142.973C143.507 116.064 144.355 115.552 145.517 115.552C146.531 115.552 147.32 115.931 147.885 116.688C148.461 117.445 148.749 118.507 148.749 119.872C148.749 121.237 148.461 122.299 147.885 123.056C147.32 123.813 146.531 124.192 145.517 124.192C144.355 124.192 143.507 123.68 142.973 122.656H142.909V127.2H141.629V115.744ZM145.021 123.056C145.768 123.056 146.344 122.832 146.749 122.384C147.165 121.925 147.373 121.323 147.373 120.576V119.168C147.373 118.421 147.165 117.824 146.749 117.376C146.344 116.917 145.768 116.688 145.021 116.688C144.733 116.688 144.461 116.725 144.205 116.8C143.949 116.875 143.725 116.987 143.533 117.136C143.341 117.275 143.187 117.451 143.069 117.664C142.963 117.867 142.909 118.107 142.909 118.384V121.36C142.909 121.637 142.963 121.883 143.069 122.096C143.187 122.299 143.341 122.475 143.533 122.624C143.725 122.763 143.949 122.869 144.205 122.944C144.461 123.019 144.733 123.056 145.021 123.056ZM150.983 122.912H153.863V113.248H150.983V112.16H155.143V122.912H158.023V124H150.983V122.912ZM164.097 124.192C163.521 124.192 162.998 124.091 162.529 123.888C162.07 123.685 161.676 123.397 161.345 123.024C161.025 122.64 160.78 122.187 160.609 121.664C160.438 121.131 160.353 120.533 160.353 119.872C160.353 119.221 160.438 118.629 160.609 118.096C160.78 117.563 161.025 117.109 161.345 116.736C161.676 116.352 162.07 116.059 162.529 115.856C162.998 115.653 163.521 115.552 164.097 115.552C164.673 115.552 165.19 115.653 165.649 115.856C166.118 116.059 166.513 116.352 166.833 116.736C167.164 117.109 167.414 117.563 167.585 118.096C167.756 118.629 167.841 119.221 167.841 119.872C167.841 120.533 167.756 121.131 167.585 121.664C167.414 122.187 167.164 122.64 166.833 123.024C166.513 123.397 166.118 123.685 165.649 123.888C165.19 124.091 164.673 124.192 164.097 124.192ZM164.097 123.088C164.812 123.088 165.388 122.875 165.825 122.448C166.262 122.021 166.481 121.36 166.481 120.464V119.28C166.481 118.384 166.262 117.723 165.825 117.296C165.388 116.869 164.812 116.656 164.097 116.656C163.382 116.656 162.806 116.869 162.369 117.296C161.932 117.723 161.713 118.384 161.713 119.28V120.464C161.713 121.36 161.932 122.021 162.369 122.448C162.806 122.875 163.382 123.088 164.097 123.088ZM170.123 122.912H172.539V116.832H170.123V115.744H173.819V117.824H173.899C174.069 117.173 174.389 116.667 174.859 116.304C175.339 115.931 175.947 115.744 176.683 115.744H177.835V117.024H176.283C175.547 117.024 174.949 117.237 174.491 117.664C174.043 118.091 173.819 118.651 173.819 119.344V122.912H177.019V124H170.123V122.912ZM183.428 124.192C182.831 124.192 182.292 124.091 181.812 123.888C181.343 123.685 180.938 123.397 180.596 123.024C180.266 122.64 180.01 122.187 179.828 121.664C179.647 121.131 179.556 120.539 179.556 119.888C179.556 119.227 179.647 118.629 179.828 118.096C180.02 117.563 180.282 117.109 180.612 116.736C180.943 116.352 181.338 116.059 181.796 115.856C182.266 115.653 182.783 115.552 183.348 115.552C183.903 115.552 184.404 115.653 184.852 115.856C185.311 116.059 185.7 116.341 186.02 116.704C186.34 117.056 186.586 117.477 186.756 117.968C186.927 118.459 187.012 118.997 187.012 119.584V120.192H180.9V120.576C180.9 120.939 180.959 121.275 181.076 121.584C181.194 121.893 181.359 122.16 181.572 122.384C181.796 122.608 182.063 122.784 182.372 122.912C182.692 123.029 183.044 123.088 183.428 123.088C183.983 123.088 184.463 122.96 184.868 122.704C185.274 122.448 185.583 122.096 185.796 121.648L186.74 122.288C186.495 122.843 186.084 123.301 185.508 123.664C184.943 124.016 184.25 124.192 183.428 124.192ZM183.348 116.608C182.996 116.608 182.671 116.672 182.372 116.8C182.074 116.928 181.812 117.104 181.588 117.328C181.375 117.552 181.204 117.819 181.076 118.128C180.959 118.427 180.9 118.757 180.9 119.12V119.232H185.636V119.056C185.636 118.693 185.578 118.363 185.46 118.064C185.354 117.765 185.199 117.509 184.996 117.296C184.804 117.072 184.564 116.901 184.276 116.784C183.999 116.667 183.69 116.608 183.348 116.608Z" fill="black" fill-opacity="0.7"/>
<path d="M358.063 124V122.928H360.847V113.904H358.063V112.832H364.975V113.904H362.191V122.928H364.975V124H358.063ZM373.113 122.656H373.049C372.515 123.68 371.667 124.192 370.505 124.192C369.491 124.192 368.697 123.813 368.121 123.056C367.555 122.299 367.273 121.237 367.273 119.872C367.273 118.507 367.555 117.445 368.121 116.688C368.697 115.931 369.491 115.552 370.505 115.552C371.667 115.552 372.515 116.064 373.049 117.088H373.113V112.16H374.392V124H373.113V122.656ZM371.001 123.056C371.289 123.056 371.561 123.019 371.817 122.944C372.073 122.869 372.297 122.763 372.489 122.624C372.681 122.475 372.83 122.299 372.937 122.096C373.054 121.883 373.113 121.637 373.113 121.36V118.384C373.113 118.107 373.054 117.867 372.937 117.664C372.83 117.451 372.681 117.275 372.489 117.136C372.297 116.987 372.073 116.875 371.817 116.8C371.561 116.725 371.289 116.688 371.001 116.688C370.254 116.688 369.673 116.917 369.257 117.376C368.851 117.824 368.649 118.421 368.649 119.168V120.576C368.649 121.323 368.851 121.925 369.257 122.384C369.673 122.832 370.254 123.056 371.001 123.056ZM380.85 124.192C380.253 124.192 379.714 124.091 379.234 123.888C378.765 123.685 378.36 123.397 378.018 123.024C377.688 122.64 377.432 122.187 377.25 121.664C377.069 121.131 376.978 120.539 376.978 119.888C376.978 119.227 377.069 118.629 377.25 118.096C377.442 117.563 377.704 117.109 378.034 116.736C378.365 116.352 378.76 116.059 379.218 115.856C379.688 115.653 380.205 115.552 380.77 115.552C381.325 115.552 381.826 115.653 382.274 115.856C382.733 116.059 383.122 116.341 383.442 116.704C383.762 117.056 384.008 117.477 384.178 117.968C384.349 118.459 384.434 118.997 384.434 119.584V120.192H378.322V120.576C378.322 120.939 378.381 121.275 378.498 121.584C378.616 121.893 378.781 122.16 378.994 122.384C379.218 122.608 379.485 122.784 379.794 122.912C380.114 123.029 380.466 123.088 380.85 123.088C381.405 123.088 381.885 122.96 382.29 122.704C382.696 122.448 383.005 122.096 383.218 121.648L384.162 122.288C383.917 122.843 383.506 123.301 382.93 123.664C382.365 124.016 381.672 124.192 380.85 124.192ZM380.77 116.608C380.418 116.608 380.093 116.672 379.794 116.8C379.496 116.928 379.234 117.104 379.01 117.328C378.797 117.552 378.626 117.819 378.498 118.128C378.381 118.427 378.322 118.757 378.322 119.12V119.232H383.058V119.056C383.058 118.693 383 118.363 382.882 118.064C382.776 117.765 382.621 117.509 382.418 117.296C382.226 117.072 381.986 116.901 381.698 116.784C381.421 116.667 381.112 116.608 380.77 116.608ZM393.42 124C392.919 124 392.561 123.872 392.348 123.616C392.135 123.36 392.001 123.04 391.948 122.656H391.868C391.687 123.136 391.393 123.515 390.988 123.792C390.593 124.059 390.06 124.192 389.388 124.192C388.524 124.192 387.836 123.968 387.324 123.52C386.812 123.072 386.556 122.459 386.556 121.68C386.556 120.912 386.833 120.32 387.388 119.904C387.953 119.488 388.86 119.28 390.108 119.28H391.868V118.464C391.868 117.856 391.697 117.403 391.356 117.104C391.015 116.795 390.529 116.64 389.9 116.64C389.345 116.64 388.892 116.752 388.54 116.976C388.188 117.189 387.905 117.483 387.692 117.856L386.828 117.216C386.935 117.003 387.079 116.795 387.26 116.592C387.441 116.389 387.665 116.213 387.932 116.064C388.199 115.904 388.503 115.781 388.844 115.696C389.185 115.6 389.564 115.552 389.98 115.552C390.951 115.552 391.719 115.797 392.284 116.288C392.86 116.779 393.148 117.461 393.148 118.336V122.88H394.3V124H393.42ZM389.612 123.12C389.943 123.12 390.241 123.083 390.508 123.008C390.785 122.923 391.025 122.816 391.228 122.688C391.431 122.549 391.585 122.389 391.692 122.208C391.809 122.016 391.868 121.813 391.868 121.6V120.24H390.108C389.34 120.24 388.78 120.347 388.428 120.56C388.076 120.773 387.9 121.083 387.9 121.488V121.824C387.9 122.251 388.049 122.576 388.348 122.8C388.657 123.013 389.079 123.12 389.612 123.12ZM400.294 124C399.664 124 399.2 123.824 398.902 123.472C398.614 123.12 398.47 122.667 398.47 122.112V116.832H395.718V115.744H397.766C398.043 115.744 398.235 115.691 398.342 115.584C398.459 115.467 398.518 115.269 398.518 114.992V112.832H399.75V115.744H403.51V116.832H399.75V122.912H403.51V124H400.294ZM409.632 124.192C409.034 124.192 408.496 124.091 408.016 123.888C407.546 123.685 407.141 123.397 406.799 123.024C406.469 122.64 406.213 122.187 406.032 121.664C405.85 121.131 405.76 120.539 405.76 119.888C405.76 119.227 405.85 118.629 406.032 118.096C406.224 117.563 406.485 117.109 406.816 116.736C407.146 116.352 407.541 116.059 408 115.856C408.469 115.653 408.986 115.552 409.552 115.552C410.106 115.552 410.608 115.653 411.056 115.856C411.514 116.059 411.904 116.341 412.224 116.704C412.544 117.056 412.789 117.477 412.96 117.968C413.13 118.459 413.216 118.997 413.216 119.584V120.192H407.104V120.576C407.104 120.939 407.162 121.275 407.28 121.584C407.397 121.893 407.562 122.16 407.776 122.384C408 122.608 408.266 122.784 408.576 122.912C408.896 123.029 409.248 123.088 409.632 123.088C410.186 123.088 410.666 122.96 411.072 122.704C411.477 122.448 411.786 122.096 412 121.648L412.944 122.288C412.698 122.843 412.288 123.301 411.712 123.664C411.146 124.016 410.453 124.192 409.632 124.192ZM409.552 116.608C409.2 116.608 408.874 116.672 408.576 116.8C408.277 116.928 408.016 117.104 407.792 117.328C407.578 117.552 407.408 117.819 407.28 118.128C407.162 118.427 407.104 118.757 407.104 119.12V119.232H411.84V119.056C411.84 118.693 411.781 118.363 411.664 118.064C411.557 117.765 411.402 117.509 411.2 117.296C411.008 117.072 410.768 116.901 410.48 116.784C410.202 116.667 409.893 116.608 409.552 116.608Z" fill="black" fill-opacity="0.7"/>
<path d="M227.739 112.832H230.859C232.224 112.832 233.243 113.301 233.915 114.24C234.587 115.179 234.923 116.571 234.923 118.416C234.923 120.261 234.587 121.653 233.915 122.592C233.243 123.531 232.224 124 230.859 124H227.739V112.832ZM230.795 122.832C231.691 122.832 232.363 122.523 232.811 121.904C233.269 121.285 233.499 120.411 233.499 119.28V117.552C233.499 116.421 233.269 115.547 232.811 114.928C232.363 114.309 231.691 114 230.795 114H229.083V122.832H230.795ZM240.757 124.192C240.159 124.192 239.621 124.091 239.141 123.888C238.671 123.685 238.266 123.397 237.924 123.024C237.594 122.64 237.338 122.187 237.157 121.664C236.975 121.131 236.885 120.539 236.885 119.888C236.885 119.227 236.975 118.629 237.157 118.096C237.349 117.563 237.61 117.109 237.941 116.736C238.271 116.352 238.666 116.059 239.125 115.856C239.594 115.653 240.111 115.552 240.677 115.552C241.231 115.552 241.733 115.653 242.181 115.856C242.639 116.059 243.029 116.341 243.349 116.704C243.669 117.056 243.914 117.477 244.085 117.968C244.255 118.459 244.341 118.997 244.341 119.584V120.192H238.229V120.576C238.229 120.939 238.287 121.275 238.405 121.584C238.522 121.893 238.687 122.16 238.901 122.384C239.125 122.608 239.391 122.784 239.701 122.912C240.021 123.029 240.373 123.088 240.757 123.088C241.311 123.088 241.791 122.96 242.197 122.704C242.602 122.448 242.911 122.096 243.125 121.648L244.069 122.288C243.823 122.843 243.413 123.301 242.837 123.664C242.271 124.016 241.578 124.192 240.757 124.192ZM240.677 116.608C240.325 116.608 239.999 116.672 239.701 116.8C239.402 116.928 239.141 117.104 238.917 117.328C238.703 117.552 238.533 117.819 238.405 118.128C238.287 118.427 238.229 118.757 238.229 119.12V119.232H242.965V119.056C242.965 118.693 242.906 118.363 242.789 118.064C242.682 117.765 242.527 117.509 242.325 117.296C242.133 117.072 241.893 116.901 241.605 116.784C241.327 116.667 241.018 116.608 240.677 116.608ZM246.734 122.912H249.518V116.832H246.574V115.744H249.518V114.048C249.518 113.493 249.662 113.04 249.95 112.688C250.249 112.336 250.713 112.16 251.342 112.16H254.11V113.248H250.798V115.744H254.11V116.832H250.798V122.912H253.742V124H246.734V122.912ZM260.312 113.92C259.939 113.92 259.677 113.845 259.528 113.696C259.379 113.536 259.304 113.339 259.304 113.104V112.848C259.304 112.613 259.379 112.421 259.528 112.272C259.677 112.112 259.939 112.032 260.312 112.032C260.685 112.032 260.947 112.112 261.096 112.272C261.245 112.421 261.32 112.613 261.32 112.848V113.104C261.32 113.339 261.245 113.536 261.096 113.696C260.947 113.845 260.685 113.92 260.312 113.92ZM256.696 122.912H259.672V116.832H256.696V115.744H260.952V122.912H263.736V124H256.696V122.912ZM266.162 124V115.744H267.442V117.088H267.506C267.591 116.885 267.698 116.693 267.826 116.512C267.954 116.32 268.108 116.155 268.29 116.016C268.482 115.877 268.706 115.765 268.962 115.68C269.218 115.595 269.516 115.552 269.858 115.552C270.722 115.552 271.415 115.829 271.938 116.384C272.46 116.928 272.722 117.701 272.722 118.704V124H271.442V118.928C271.442 118.171 271.276 117.611 270.946 117.248C270.615 116.875 270.13 116.688 269.49 116.688C269.234 116.688 268.983 116.72 268.738 116.784C268.492 116.848 268.274 116.944 268.082 117.072C267.89 117.2 267.735 117.365 267.618 117.568C267.5 117.771 267.442 118.005 267.442 118.272V124H266.162ZM279.132 124.192C278.534 124.192 277.996 124.091 277.516 123.888C277.046 123.685 276.641 123.397 276.299 123.024C275.969 122.64 275.713 122.187 275.532 121.664C275.35 121.131 275.26 120.539 275.26 119.888C275.26 119.227 275.35 118.629 275.532 118.096C275.724 117.563 275.985 117.109 276.316 116.736C276.646 116.352 277.041 116.059 277.5 115.856C277.969 115.653 278.486 115.552 279.052 115.552C279.606 115.552 280.108 115.653 280.556 115.856C281.014 116.059 281.404 116.341 281.724 116.704C282.044 117.056 282.289 117.477 282.46 117.968C282.63 118.459 282.716 118.997 282.716 119.584V120.192H276.604V120.576C276.604 120.939 276.662 121.275 276.78 121.584C276.897 121.893 277.062 122.16 277.276 122.384C277.5 122.608 277.766 122.784 278.076 122.912C278.396 123.029 278.748 123.088 279.132 123.088C279.686 123.088 280.166 122.96 280.572 122.704C280.977 122.448 281.286 122.096 281.5 121.648L282.444 122.288C282.198 122.843 281.788 123.301 281.212 123.664C280.646 124.016 279.953 124.192 279.132 124.192ZM279.052 116.608C278.7 116.608 278.374 116.672 278.076 116.8C277.777 116.928 277.516 117.104 277.292 117.328C277.078 117.552 276.908 117.819 276.78 118.128C276.662 118.427 276.604 118.757 276.604 119.12V119.232H281.34V119.056C281.34 118.693 281.281 118.363 281.164 118.064C281.057 117.765 280.902 117.509 280.7 117.296C280.508 117.072 280.268 116.901 279.98 116.784C279.702 116.667 279.393 116.608 279.052 116.608Z" fill="black" fill-opacity="0.7"/>
<path d="M449.065 124V112.832H455.945V114H450.409V117.76H455.753V118.928H450.409V122.832H455.945V124H449.065ZM461.203 124L458.243 115.744H459.539L460.723 119.2L462.003 122.928H462.067L463.347 119.2L464.531 115.744H465.795L462.835 124H461.203ZM474.733 124C474.231 124 473.874 123.872 473.661 123.616C473.447 123.36 473.314 123.04 473.261 122.656H473.181C472.999 123.136 472.706 123.515 472.301 123.792C471.906 124.059 471.373 124.192 470.701 124.192C469.837 124.192 469.149 123.968 468.637 123.52C468.125 123.072 467.868 122.459 467.868 121.68C467.868 120.912 468.146 120.32 468.701 119.904C469.266 119.488 470.173 119.28 471.421 119.28H473.181V118.464C473.181 117.856 473.01 117.403 472.669 117.104C472.327 116.795 471.842 116.64 471.213 116.64C470.658 116.64 470.205 116.752 469.853 116.976C469.501 117.189 469.218 117.483 469.005 117.856L468.141 117.216C468.247 117.003 468.391 116.795 468.573 116.592C468.754 116.389 468.978 116.213 469.245 116.064C469.511 115.904 469.815 115.781 470.157 115.696C470.498 115.6 470.877 115.552 471.293 115.552C472.263 115.552 473.031 115.797 473.597 116.288C474.173 116.779 474.461 117.461 474.461 118.336V122.88H475.613V124H474.733ZM470.924 123.12C471.255 123.12 471.554 123.083 471.821 123.008C472.098 122.923 472.338 122.816 472.541 122.688C472.743 122.549 472.898 122.389 473.005 122.208C473.122 122.016 473.181 121.813 473.181 121.6V120.24H471.421C470.653 120.24 470.093 120.347 469.741 120.56C469.389 120.773 469.213 121.083 469.213 121.488V121.824C469.213 122.251 469.362 122.576 469.661 122.8C469.97 123.013 470.391 123.12 470.924 123.12ZM477.686 122.912H480.566V113.248H477.686V112.16H481.846V122.912H484.726V124H477.686V122.912ZM492.752 122.656H492.688C492.603 122.859 492.496 123.056 492.368 123.248C492.24 123.429 492.08 123.589 491.888 123.728C491.707 123.867 491.488 123.979 491.232 124.064C490.976 124.149 490.677 124.192 490.336 124.192C489.472 124.192 488.779 123.92 488.256 123.376C487.733 122.821 487.472 122.043 487.472 121.04V115.744H488.752V120.816C488.752 121.573 488.917 122.139 489.248 122.512C489.579 122.875 490.064 123.056 490.704 123.056C490.96 123.056 491.211 123.024 491.456 122.96C491.701 122.896 491.92 122.8 492.112 122.672C492.304 122.544 492.459 122.384 492.576 122.192C492.693 121.989 492.752 121.749 492.752 121.472V115.744H494.032V124H492.752V122.656ZM503.514 124C503.012 124 502.655 123.872 502.442 123.616C502.228 123.36 502.095 123.04 502.042 122.656H501.962C501.78 123.136 501.487 123.515 501.082 123.792C500.687 124.059 500.154 124.192 499.482 124.192C498.618 124.192 497.93 123.968 497.418 123.52C496.906 123.072 496.65 122.459 496.65 121.68C496.65 120.912 496.927 120.32 497.482 119.904C498.047 119.488 498.954 119.28 500.202 119.28H501.962V118.464C501.962 117.856 501.791 117.403 501.45 117.104C501.108 116.795 500.623 116.64 499.994 116.64C499.439 116.64 498.986 116.752 498.634 116.976C498.282 117.189 497.999 117.483 497.786 117.856L496.922 117.216C497.028 117.003 497.172 116.795 497.354 116.592C497.535 116.389 497.759 116.213 498.026 116.064C498.292 115.904 498.596 115.781 498.938 115.696C499.279 115.6 499.658 115.552 500.074 115.552C501.044 115.552 501.812 115.797 502.378 116.288C502.954 116.779 503.242 117.461 503.242 118.336V122.88H504.394V124H503.514ZM499.706 123.12C500.036 123.12 500.335 123.083 500.602 123.008C500.879 122.923 501.119 122.816 501.322 122.688C501.524 122.549 501.679 122.389 501.786 122.208C501.903 122.016 501.962 121.813 501.962 121.6V120.24H500.202C499.434 120.24 498.874 120.347 498.522 120.56C498.17 120.773 497.994 121.083 497.994 121.488V121.824C497.994 122.251 498.143 122.576 498.442 122.8C498.751 123.013 499.172 123.12 499.706 123.12ZM510.388 124C509.758 124 509.294 123.824 508.996 123.472C508.708 123.12 508.564 122.667 508.564 122.112V116.832H505.812V115.744H507.86C508.137 115.744 508.329 115.691 508.436 115.584C508.553 115.467 508.612 115.269 508.612 114.992V112.832H509.844V115.744H513.604V116.832H509.844V122.912H513.604V124H510.388ZM519.725 124.192C519.128 124.192 518.589 124.091 518.109 123.888C517.64 123.685 517.235 123.397 516.893 123.024C516.563 122.64 516.307 122.187 516.125 121.664C515.944 121.131 515.853 120.539 515.853 119.888C515.853 119.227 515.944 118.629 516.125 118.096C516.317 117.563 516.579 117.109 516.909 116.736C517.24 116.352 517.635 116.059 518.093 115.856C518.563 115.653 519.08 115.552 519.645 115.552C520.2 115.552 520.701 115.653 521.149 115.856C521.608 116.059 521.997 116.341 522.317 116.704C522.637 117.056 522.883 117.477 523.053 117.968C523.224 118.459 523.309 118.997 523.309 119.584V120.192H517.197V120.576C517.197 120.939 517.256 121.275 517.373 121.584C517.491 121.893 517.656 122.16 517.869 122.384C518.093 122.608 518.36 122.784 518.669 122.912C518.989 123.029 519.341 123.088 519.725 123.088C520.28 123.088 520.76 122.96 521.165 122.704C521.571 122.448 521.88 122.096 522.093 121.648L523.037 122.288C522.792 122.843 522.381 123.301 521.805 123.664C521.24 124.016 520.547 124.192 519.725 124.192ZM519.645 116.608C519.293 116.608 518.968 116.672 518.669 116.8C518.371 116.928 518.109 117.104 517.885 117.328C517.672 117.552 517.501 117.819 517.373 118.128C517.256 118.427 517.197 118.757 517.197 119.12V119.232H521.933V119.056C521.933 118.693 521.875 118.363 521.757 118.064C521.651 117.765 521.496 117.509 521.293 117.296C521.101 117.072 520.861 116.901 520.573 116.784C520.296 116.667 519.987 116.608 519.645 116.608Z" fill="black" fill-opacity="0.7"/>
<path d="M401.923 58.04H405.823C407.53 58.04 408.803 58.6267 409.643 59.8C410.483 60.9733 410.903 62.7133 410.903 65.02C410.903 67.3267 410.483 69.0667 409.643 70.24C408.803 71.4133 407.53 72 405.823 72H401.923V58.04ZM405.743 70.54C406.863 70.54 407.703 70.1533 408.263 69.38C408.837 68.6067 409.123 67.5133 409.123 66.1V63.94C409.123 62.5267 408.837 61.4333 408.263 60.66C407.703 59.8867 406.863 59.5 405.743 59.5H403.603V70.54H405.743ZM418.196 72.24C417.449 72.24 416.776 72.1133 416.176 71.86C415.589 71.6067 415.082 71.2467 414.656 70.78C414.242 70.3 413.922 69.7333 413.696 69.08C413.469 68.4133 413.356 67.6733 413.356 66.86C413.356 66.0333 413.469 65.2867 413.696 64.62C413.936 63.9533 414.262 63.3867 414.676 62.92C415.089 62.44 415.582 62.0733 416.156 61.82C416.742 61.5667 417.389 61.44 418.096 61.44C418.789 61.44 419.416 61.5667 419.976 61.82C420.549 62.0733 421.036 62.4267 421.436 62.88C421.836 63.32 422.142 63.8467 422.356 64.46C422.569 65.0733 422.676 65.7467 422.676 66.48V67.24H415.036V67.72C415.036 68.1733 415.109 68.5933 415.256 68.98C415.402 69.3667 415.609 69.7 415.876 69.98C416.156 70.26 416.489 70.48 416.876 70.64C417.276 70.7867 417.716 70.86 418.196 70.86C418.889 70.86 419.489 70.7 419.996 70.38C420.502 70.06 420.889 69.62 421.156 69.06L422.336 69.86C422.029 70.5533 421.516 71.1267 420.796 71.58C420.089 72.02 419.222 72.24 418.196 72.24ZM418.096 62.76C417.656 62.76 417.249 62.84 416.876 63C416.502 63.16 416.176 63.38 415.896 63.66C415.629 63.94 415.416 64.2733 415.256 64.66C415.109 65.0333 415.036 65.4467 415.036 65.9V66.04H420.956V65.82C420.956 65.3667 420.882 64.9533 420.736 64.58C420.602 64.2067 420.409 63.8867 420.156 63.62C419.916 63.34 419.616 63.1267 419.256 62.98C418.909 62.8333 418.522 62.76 418.096 62.76ZM430.128 72.24C429.048 72.24 428.114 72.06 427.328 71.7C426.554 71.3267 425.894 70.8333 425.348 70.22L426.428 69.28C426.921 69.8 427.461 70.2 428.048 70.48C428.634 70.76 429.341 70.9 430.168 70.9C430.968 70.9 431.621 70.76 432.128 70.48C432.648 70.1867 432.908 69.7333 432.908 69.12C432.908 68.8533 432.854 68.6333 432.748 68.46C432.654 68.2733 432.521 68.1267 432.348 68.02C432.174 67.9133 431.981 67.8333 431.768 67.78C431.554 67.7133 431.328 67.66 431.088 67.62L429.468 67.38C429.108 67.3267 428.714 67.2533 428.288 67.16C427.874 67.0667 427.494 66.92 427.148 66.72C426.801 66.5067 426.508 66.2267 426.268 65.88C426.041 65.5333 425.928 65.08 425.928 64.52C425.928 64 426.028 63.5533 426.228 63.18C426.441 62.7933 426.734 62.4733 427.108 62.22C427.481 61.9533 427.921 61.76 428.428 61.64C428.934 61.5067 429.488 61.44 430.088 61.44C431.021 61.44 431.828 61.5867 432.508 61.88C433.201 62.1733 433.794 62.58 434.288 63.1L433.248 64.08C433.128 63.9333 432.974 63.7867 432.788 63.64C432.614 63.48 432.394 63.34 432.128 63.22C431.874 63.0867 431.574 62.98 431.228 62.9C430.881 62.82 430.481 62.78 430.028 62.78C429.214 62.78 428.588 62.92 428.148 63.2C427.721 63.48 427.508 63.8867 427.508 64.42C427.508 64.6867 427.554 64.9133 427.648 65.1C427.754 65.2733 427.894 65.4133 428.068 65.52C428.241 65.6267 428.434 65.7133 428.648 65.78C428.874 65.8333 429.101 65.88 429.328 65.92L430.948 66.16C431.321 66.2133 431.714 66.2867 432.128 66.38C432.541 66.4733 432.921 66.6267 433.268 66.84C433.614 67.04 433.901 67.3133 434.128 67.66C434.368 68.0067 434.488 68.46 434.488 69.02C434.488 70.0467 434.088 70.84 433.288 71.4C432.501 71.96 431.448 72.24 430.128 72.24ZM442.64 59.4C442.173 59.4 441.847 59.3067 441.66 59.12C441.473 58.92 441.38 58.6733 441.38 58.38V58.06C441.38 57.7667 441.473 57.5267 441.66 57.34C441.847 57.14 442.173 57.04 442.64 57.04C443.107 57.04 443.433 57.14 443.62 57.34C443.807 57.5267 443.9 57.7667 443.9 58.06V58.38C443.9 58.6733 443.807 58.92 443.62 59.12C443.433 59.3067 443.107 59.4 442.64 59.4ZM438.12 70.64H441.84V63.04H438.12V61.68H443.44V70.64H446.92V72H438.12V70.64ZM459.212 73.18C459.212 74.22 458.779 74.9867 457.912 75.48C457.046 75.9867 455.746 76.24 454.012 76.24C452.346 76.24 451.146 76.02 450.412 75.58C449.692 75.14 449.332 74.5067 449.332 73.68C449.332 73.12 449.479 72.6867 449.772 72.38C450.066 72.0733 450.479 71.8467 451.012 71.7V71.46C450.719 71.3133 450.492 71.1267 450.332 70.9C450.172 70.6733 450.092 70.3867 450.092 70.04C450.092 69.5067 450.266 69.1067 450.612 68.84C450.972 68.5733 451.419 68.3733 451.952 68.24V68.16C451.312 67.88 450.812 67.4667 450.452 66.92C450.106 66.3733 449.932 65.7333 449.932 65C449.932 64.48 450.026 64 450.212 63.56C450.399 63.12 450.666 62.7467 451.012 62.44C451.372 62.12 451.799 61.8733 452.292 61.7C452.786 61.5267 453.332 61.44 453.932 61.44C454.706 61.44 455.386 61.58 455.972 61.86V61.68C455.972 61.28 456.066 60.9467 456.252 60.68C456.439 60.4133 456.759 60.28 457.212 60.28H459.112V61.68H456.792V62.38C457.166 62.7 457.452 63.08 457.652 63.52C457.852 63.96 457.952 64.4533 457.952 65C457.952 65.52 457.852 66 457.652 66.44C457.466 66.88 457.199 67.26 456.852 67.58C456.506 67.8867 456.079 68.1267 455.572 68.3C455.079 68.4733 454.532 68.56 453.932 68.56C453.759 68.56 453.592 68.5533 453.432 68.54C453.272 68.5267 453.112 68.5067 452.952 68.48C452.792 68.5067 452.626 68.5533 452.452 68.62C452.279 68.6733 452.119 68.7533 451.972 68.86C451.826 68.9533 451.706 69.0667 451.612 69.2C451.519 69.3333 451.472 69.4867 451.472 69.66C451.472 69.9667 451.626 70.1733 451.932 70.28C452.239 70.3733 452.639 70.42 453.132 70.42H455.412C456.746 70.42 457.712 70.6733 458.312 71.18C458.912 71.6733 459.212 72.34 459.212 73.18ZM457.712 73.26C457.712 72.8467 457.546 72.5133 457.212 72.26C456.879 72.02 456.299 71.9 455.472 71.9H451.892C451.199 72.18 450.852 72.6467 450.852 73.3C450.852 73.7533 451.032 74.14 451.392 74.46C451.752 74.7933 452.352 74.96 453.192 74.96H454.752C455.686 74.96 456.412 74.8133 456.932 74.52C457.452 74.24 457.712 73.82 457.712 73.26ZM453.932 67.32C454.732 67.32 455.319 67.1333 455.692 66.76C456.079 66.3867 456.272 65.8933 456.272 65.28V64.7C456.272 64.0867 456.079 63.6 455.692 63.24C455.319 62.8667 454.732 62.68 453.932 62.68C453.132 62.68 452.546 62.8667 452.172 63.24C451.799 63.6 451.612 64.0867 451.612 64.7V65.28C451.612 65.8933 451.799 66.3867 452.172 66.76C452.546 67.1333 453.132 67.32 453.932 67.32ZM461.944 72V61.68H463.544V63.36H463.624C463.731 63.1067 463.864 62.8667 464.024 62.64C464.184 62.4 464.378 62.1933 464.604 62.02C464.844 61.8467 465.124 61.7067 465.444 61.6C465.764 61.4933 466.138 61.44 466.564 61.44C467.644 61.44 468.511 61.7867 469.164 62.48C469.818 63.16 470.144 64.1267 470.144 65.38V72H468.544V65.66C468.544 64.7133 468.338 64.0133 467.924 63.56C467.511 63.0933 466.904 62.86 466.104 62.86C465.784 62.86 465.471 62.9 465.164 62.98C464.858 63.06 464.584 63.18 464.344 63.34C464.104 63.5 463.911 63.7067 463.764 63.96C463.618 64.2133 463.544 64.5067 463.544 64.84V72H461.944Z" fill="black"/>
</svg>
